<svg xmlns="http://www.w3.org/2000/svg" version="1.1" xmlns:xlink="http://www.w3.org/1999/xlink" xmlns:svgjs="http://svgjs.dev/svgjs" width="1000" height="338" viewBox="0 0 1000 338"><g transform="matrix(1,0,0,1,-0.6060606060606233,0.25603289237301396)"><svg viewBox="0 0 396 134" data-background-color="#77d4fc" preserveAspectRatio="xMidYMid meet" height="338" width="1000" xmlns="http://www.w3.org/2000/svg" xmlns:xlink="http://www.w3.org/1999/xlink"><g id="tight-bounds" transform="matrix(1,0,0,1,0.2400000000000091,-0.10150416443190124)"><svg viewBox="0 0 395.52 134.2030083288638" height="134.2030083288638" width="395.52"><g><svg viewBox="0 0 632.1355970626344 214.48851840000003" height="134.2030083288638" width="395.52"><g transform="matrix(1,0,0,1,236.6155970626343,60.37994715084159)"><svg viewBox="0 0 395.52000000000004 93.72862409831686" height="93.72862409831686" width="395.52000000000004"><g id="textblocktransform"><svg viewBox="0 0 395.52000000000004 93.72862409831686" height="93.72862409831686" width="395.52000000000004" id="textblock"><g><svg viewBox="0 0 395.52000000000004 93.72862409831686" height="93.72862409831686" width="395.52000000000004"><g transform="matrix(1,0,0,1,0,0)"><svg width="395.52000000000004" viewBox="1.25 -35.1 187.13 44.35" height="93.72862409831686" data-palette-color="#000000"><path d="M11.2-3.05Q12.85-3.05 14.8-4.05L14.8-4.05 15.25-3.75 14.85-1.15Q12.15 0.1 9.85 0.3L9.85 0.3Q7-0.25 5.75-1.8 4.5-3.35 4.5-6.3L4.5-6.3 4.65-9.85 4.6-20.2 1.45-20.2 1.25-20.5 1.5-22.85 4.55-22.85 4.55-26.55 8-28.05 8.4-27.7 8.3-22.85 15.1-22.85 15.3-22.55 15.05-20.2 8.3-20.2 8.05-6.65Q8-4.65 8.75-3.85 9.5-3.05 11.2-3.05L11.2-3.05ZM20 0L20.2-9.7 20.05-22.65 23.9-23 23.8-10.05 23.9 0 20 0ZM22.05-33.15Q23.05-33.15 23.65-32.55 24.25-31.95 24.25-30.9L24.25-30.9Q24.25-29.8 23.62-29.15 23-28.5 21.9-28.5L21.9-28.5Q20.85-28.5 20.27-29.1 19.7-29.7 19.7-30.8L19.7-30.8Q19.7-31.85 20.32-32.5 20.95-33.15 22.05-33.15L22.05-33.15ZM40.3-23.3Q41.84-23.3 43.52-22.93 45.2-22.55 46.45-21.95L46.45-21.95 45.75-18.5 45.3-18.35Q42.7-20.05 40.15-20.05L40.15-20.05Q37.2-20.05 35.55-17.8 33.9-15.55 33.9-11.5L33.9-11.5Q33.9-7.45 35.62-5.13 37.34-2.8 40.4-2.8L40.4-2.8Q41.75-2.8 43.22-3.25 44.7-3.7 46-4.5L46-4.5 46.45-4.25 46-0.9Q42.95 0.4 39.9 0.4L39.9 0.4Q35.34 0.4 32.75-2.73 30.15-5.85 30.15-11.3L30.15-11.3Q30.15-16.85 32.87-20.08 35.59-23.3 40.3-23.3L40.3-23.3ZM55.49-35.1L55.19-10.05 55.44 0 51.49 0 51.79-9.75 51.54-34.75 55.49-35.1ZM69.09-22.9L60.09-12.4Q63.54-7.75 69.69-0.7L69.69-0.7 69.69-0.25Q68.74 0.05 67.62 0.23 66.49 0.4 66.14 0.45L66.14 0.45 65.64 0.25Q59.99-6.45 56.14-12.05L56.14-12.05 56.14-12.4 63.29-20.85 64.59-22.9 69.09-22.9ZM89.44-11.65L75.09-11.6 75.09-11.5Q75.09-7.3 76.99-5.05 78.89-2.8 82.39-2.8L82.39-2.8Q84.14-2.8 85.89-3.38 87.64-3.95 89.09-5L89.09-5 89.49-4.7 88.89-1.3Q85.39 0.4 81.89 0.4L81.89 0.4Q76.99 0.4 74.19-2.73 71.39-5.85 71.39-11.3L71.39-11.3Q71.39-16.8 74.19-20.05 76.99-23.3 81.74-23.3L81.74-23.3Q85.74-23.3 87.94-21.03 90.14-18.75 90.14-14.7L90.14-14.7Q90.14-13.35 89.94-12.15L89.94-12.15 89.44-11.65ZM81.74-20.5Q79.24-20.5 77.57-18.88 75.89-17.25 75.34-14.3L75.34-14.3 86.39-14.5 86.49-15.2Q86.49-17.75 85.27-19.13 84.04-20.5 81.74-20.5L81.74-20.5ZM103.54-3.05Q105.19-3.05 107.14-4.05L107.14-4.05 107.59-3.75 107.19-1.15Q104.49 0.1 102.19 0.3L102.19 0.3Q99.34-0.25 98.09-1.8 96.84-3.35 96.84-6.3L96.84-6.3 96.99-9.85 96.94-20.2 93.79-20.2 93.59-20.5 93.84-22.85 96.89-22.85 96.89-26.55 100.34-28.05 100.74-27.7 100.64-22.85 107.44-22.85 107.64-22.55 107.39-20.2 100.64-20.2 100.39-6.65Q100.34-4.65 101.09-3.85 101.84-3.05 103.54-3.05L103.54-3.05ZM128.08-23.3Q131.33-23.3 133.21-21.7 135.08-20.1 135.08-17.3L135.08-17.3Q135.08-16.45 134.78-11.15L134.78-11.15Q134.48-5.85 134.48-4.95L134.48-4.95Q134.48-3.85 134.83-3.43 135.18-3 136.03-3L136.03-3Q136.78-3 137.73-3.3L137.73-3.3 138.13-2.95 137.73-0.7Q136.28 0.15 134.88 0.3L134.88 0.3Q133.33 0.15 132.41-0.8 131.48-1.75 131.43-3.4L131.43-3.4 131.08-3.4Q128.38-0.65 125.73 0.35L125.73 0.35Q122.38 0.35 120.51-1.33 118.63-3 118.63-5.9L118.63-5.9Q118.63-8.1 119.81-9.4 120.98-10.7 123.28-11.25L123.28-11.25 131.38-13.15 131.43-16.4Q131.43-18.35 130.41-19.4 129.38-20.45 127.48-20.45L127.48-20.45Q125.78-20.45 124.08-19.65 122.38-18.85 120.43-17.15L120.43-17.15 120.03-17.35 119.53-20.2Q123.68-23.3 128.08-23.3L128.08-23.3ZM131.33-10.6L124.08-8.85Q123.08-8.55 122.63-8.03 122.18-7.5 122.18-6.45L122.18-6.45Q122.18-4.8 123.11-3.88 124.03-2.95 125.58-2.95L125.58-2.95Q128.33-2.95 131.18-6.5L131.18-6.5 131.33-10.6ZM154.03-23.15Q158.33-23.15 160.63-20.3 162.93-17.45 162.93-12.15L162.93-12.15Q162.93-6.15 160.03-2.88 157.13 0.4 151.78 0.4L151.78 0.4Q149.68 0.4 147.43-0.05L147.43-0.05 147.53 9.25 143.63 9.25 143.88-9.7 143.63-22.65 147.43-23 147.38-19.75 147.73-19.75Q149.48-21.2 150.88-21.95 152.28-22.7 154.03-23.15L154.03-23.15ZM152.28-2.5Q155.58-2.5 157.38-4.8 159.18-7.1 159.18-11.35L159.18-11.35Q159.18-15.5 157.76-17.7 156.33-19.9 153.68-19.9L153.68-19.9Q152.13-19.9 150.61-19.05 149.08-18.2 147.38-16.4L147.38-16.4 147.33-10.05 147.38-3.8Q149.83-2.5 152.28-2.5L152.28-2.5ZM179.48-23.15Q183.78-23.15 186.08-20.3 188.38-17.45 188.38-12.15L188.38-12.15Q188.38-6.15 185.48-2.88 182.58 0.4 177.23 0.4L177.23 0.4Q175.13 0.4 172.88-0.05L172.88-0.05 172.98 9.25 169.08 9.25 169.33-9.7 169.08-22.65 172.88-23 172.83-19.75 173.18-19.75Q174.93-21.2 176.33-21.95 177.73-22.7 179.48-23.15L179.48-23.15ZM177.73-2.5Q181.03-2.5 182.83-4.8 184.63-7.1 184.63-11.35L184.63-11.35Q184.63-15.5 183.2-17.7 181.78-19.9 179.13-19.9L179.13-19.9Q177.58-19.9 176.05-19.05 174.53-18.2 172.83-16.4L172.83-16.4 172.78-10.05 172.83-3.8Q175.28-2.5 177.73-2.5L177.73-2.5Z" opacity="1" transform="matrix(1,0,0,1,0,0)" fill="#000000" class="wordmark-text-0" data-fill-palette-color="primary" id="text-0"></path></svg></g></svg></g></svg></g></svg></g><g><svg viewBox="0 0 214.48851840000003 214.48851840000003" height="214.48851840000003" width="214.48851840000003"><g><svg></svg></g><g id="icon-0"><svg viewBox="0 0 214.48851840000003 214.48851840000003" height="214.48851840000003" width="214.48851840000003"><g><rect width="195.02567136000002" height="195.02567136000002" x="9.731423520000007" y="9.731423520000007" fill="#000000" data-fill-palette-color="accent"></rect><rect width="195.02567136000002" height="195.02567136000002" x="19.462847040000007" y="7.105427357601002e-15" fill="#000000" opacity="0.5" data-fill-palette-color="accent"></rect></g><g transform="matrix(1,0,0,1,27.804315909936193,27.804067200000006)"><svg viewBox="0 0 158.87988658012765 158.88038400000002" height="158.88038400000002" width="158.87988658012765"><g><svg xmlns="http://www.w3.org/2000/svg" xmlns:xlink="http://www.w3.org/1999/xlink" version="1.1" x="0" y="0" viewBox="10.07425 10.073749999999997 79.85199999999998 79.85225" enable-background="new 0 0 100 100" xml:space="preserve" height="158.88038400000002" width="158.87988658012765" class="icon-cg-0" data-fill-palette-color="background" id="cg-0"><g fill="#77d4fc" data-fill-palette-color="background"><path fill="none" d="M26.032 26.031c-9.711 9.71-9.711 25.453 0 35.163 9.711 9.713 25.455 9.713 35.166 0 9.71-9.71 9.71-25.452 0.001-35.163C51.485 16.32 35.742 16.32 26.032 26.031zM58.244 53.829c0 2.683-2.184 4.865-4.865 4.865h-3.086v3.784h-2.117v-3.784h-3.38v3.784h-2.117v-3.784H39.21v3.784h-2.117v-3.784h-3.086c-2.683 0-4.866-2.183-4.866-4.865V34.458c0-2.683 2.183-4.865 4.866-4.865h3.086v-3.965h2.117v3.965h3.469v-3.965h2.117v3.965h3.38v-3.965h2.117v3.965h3.086c2.682 0 4.865 2.182 4.865 4.865V53.829z"></path><path fill="none" d="M53.379 30.673H34.007c-2.086 0-3.784 1.698-3.784 3.784v19.372c0 2.086 1.698 3.784 3.784 3.784h19.372c2.087 0 3.784-1.698 3.784-3.784V34.458C57.163 32.371 55.466 30.673 53.379 30.673zM54.437 50.563c0 2.388-1.937 4.324-4.324 4.324h-12.84c-2.388 0-4.325-1.937-4.325-4.324v-12.84c0-2.389 1.937-4.325 4.325-4.325h12.84c2.388 0 4.324 1.937 4.324 4.325V50.563z"></path><path d="M88.064 79.066L71.396 62.4c8.845-13.048 7.494-30.943-4.064-42.502-13.1-13.099-34.336-13.099-47.435 0C6.8 32.995 6.8 54.232 19.897 67.329 31.458 78.89 49.353 80.239 62.4 71.395l16.668 16.668c2.483 2.484 6.512 2.484 8.996 0C90.547 85.577 90.547 81.551 88.064 79.066zM61.197 61.194c-9.711 9.713-25.454 9.713-35.166 0-9.711-9.71-9.711-25.453 0-35.163 9.71-9.711 25.454-9.711 35.167 0C70.907 35.742 70.907 51.484 61.197 61.194z" fill="#77d4fc" data-fill-palette-color="background"></path><path d="M50.112 33.398h-12.84c-2.388 0-4.325 1.937-4.325 4.325v12.84c0 2.388 1.937 4.324 4.325 4.324h12.84c2.388 0 4.324-1.937 4.324-4.324v-12.84C54.437 35.335 52.5 33.398 50.112 33.398z" fill="#77d4fc" data-fill-palette-color="background"></path><path d="M53.379 29.592h-3.086v-3.965h-2.117v3.965h-3.38v-3.965h-2.117v3.965H39.21v-3.965h-2.117v3.965h-3.086c-2.683 0-4.866 2.182-4.866 4.865v19.372c0 2.683 2.183 4.865 4.866 4.865h3.086v3.784h2.117v-3.784h3.469v3.784h2.117v-3.784h3.38v3.784h2.117v-3.784h3.086c2.682 0 4.865-2.183 4.865-4.865V34.458C58.244 31.774 56.061 29.592 53.379 29.592zM57.163 53.829c0 2.086-1.697 3.784-3.784 3.784H34.007c-2.086 0-3.784-1.698-3.784-3.784V34.458c0-2.086 1.698-3.784 3.784-3.784h19.372c2.087 0 3.784 1.698 3.784 3.784V53.829z" fill="#77d4fc" data-fill-palette-color="background"></path></g></svg></g></svg></g></svg></g></svg></g></svg></g><defs></defs></svg><rect width="395.52" height="134.2030083288638" fill="none" stroke="none" visibility="hidden"></rect></g></svg></g></svg>